<svg width="166" height="28" viewBox="0 0 166 28" fill="none" xmlns="http://www.w3.org/2000/svg">
<path d="M2.46591 24V3.63636H14.6761V5.82386H4.93182V12.7045H13.7614V14.892H4.93182V24H2.46591ZM20.9279 3.63636V24H18.5813V3.63636H20.9279ZM31.6293 24.3182C30.1577 24.3182 28.8883 23.9934 27.821 23.3438C26.7604 22.6875 25.9418 21.7727 25.3651 20.5994C24.795 19.4195 24.5099 18.0473 24.5099 16.483C24.5099 14.9186 24.795 13.5398 25.3651 12.3466C25.9418 11.1468 26.7438 10.2121 27.7713 9.54261C28.8054 8.86648 30.0118 8.52841 31.3906 8.52841C32.1861 8.52841 32.9716 8.66098 33.7472 8.92614C34.5227 9.19129 35.2287 9.62216 35.8651 10.2188C36.5014 10.8087 37.0085 11.5909 37.3864 12.5653C37.7642 13.5398 37.9531 14.7396 37.9531 16.1648V17.1591H26.1804V15.1307H35.5668C35.5668 14.2689 35.3944 13.5 35.0497 12.8239C34.7116 12.1477 34.2277 11.6141 33.598 11.223C32.9749 10.8319 32.2391 10.6364 31.3906 10.6364C30.456 10.6364 29.6473 10.8684 28.9645 11.3324C28.2884 11.7898 27.768 12.3864 27.4034 13.1222C27.0388 13.858 26.8565 14.6468 26.8565 15.4886V16.8409C26.8565 17.9943 27.0554 18.9721 27.4531 19.7741C27.8575 20.5696 28.4176 21.1761 29.1335 21.5938C29.8494 22.0047 30.6813 22.2102 31.6293 22.2102C32.2457 22.2102 32.8026 22.1241 33.2997 21.9517C33.8035 21.7727 34.2377 21.5076 34.6023 21.1562C34.9669 20.7983 35.2486 20.3542 35.4474 19.8239L37.7145 20.4602C37.4759 21.2292 37.0748 21.9053 36.5114 22.4886C35.9479 23.0653 35.2519 23.5161 34.4233 23.8409C33.5947 24.1591 32.6634 24.3182 31.6293 24.3182ZM42.8626 8.72727L46.5217 14.9716L50.1808 8.72727H52.8853L47.9535 16.3636L52.8853 24H50.1808L46.5217 18.0739L42.8626 24H40.158L45.0103 16.3636L40.158 8.72727H42.8626ZM56.2337 24V8.72727H58.5803V24H56.2337ZM57.4268 6.18182C56.9695 6.18182 56.575 6.02604 56.2436 5.71449C55.9188 5.40294 55.7564 5.02841 55.7564 4.59091C55.7564 4.15341 55.9188 3.77888 56.2436 3.46733C56.575 3.15578 56.9695 3 57.4268 3C57.8842 3 58.2753 3.15578 58.6001 3.46733C58.9316 3.77888 59.0973 4.15341 59.0973 4.59091C59.0973 5.02841 58.9316 5.40294 58.6001 5.71449C58.2753 6.02604 57.8842 6.18182 57.4268 6.18182Z" fill="black"/>
<path d="M62.2717 24V3.63636H70.6836C72.2082 3.63636 73.524 3.91146 74.631 4.46165C75.7447 5.00521 76.6031 5.7874 77.2063 6.80824C77.8095 7.82244 78.1112 9.02557 78.1112 10.4176C78.1112 11.8295 77.8029 13.0294 77.1864 14.017C76.57 14.9981 75.695 15.7472 74.5614 16.2642C73.4279 16.7746 72.0856 17.0298 70.5344 17.0298H65.2148V13.152H69.6197C70.3621 13.152 70.9819 13.0559 71.479 12.8636C71.9828 12.6648 72.364 12.3665 72.6225 11.9688C72.881 11.5644 73.0103 11.0473 73.0103 10.4176C73.0103 9.78788 72.881 9.26752 72.6225 8.85653C72.364 8.43892 71.9828 8.12737 71.479 7.92188C70.9753 7.70975 70.3555 7.60369 69.6197 7.60369H67.1935V24H62.2717ZM73.7362 14.6932L78.8072 24H73.4379L68.4663 14.6932H73.7362ZM80.8107 24V8.72727H85.6729V24H80.8107ZM83.2468 6.94744C82.564 6.94744 81.9774 6.72206 81.4869 6.27131C80.9963 5.81392 80.7511 5.26373 80.7511 4.62074C80.7511 3.98437 80.9963 3.44081 81.4869 2.99006C81.9774 2.53267 82.564 2.30398 83.2468 2.30398C83.9362 2.30398 84.5228 2.53267 85.0067 2.99006C85.4973 3.44081 85.7425 3.98437 85.7425 4.62074C85.7425 5.26373 85.4973 5.81392 85.0067 6.27131C84.5228 6.72206 83.9362 6.94744 83.2468 6.94744ZM94.3459 24.2188C93.219 24.2188 92.1948 23.9271 91.2734 23.3438C90.352 22.7604 89.6162 21.8854 89.0661 20.7188C88.5159 19.5521 88.2408 18.1037 88.2408 16.3736C88.2408 14.5772 88.5258 13.099 89.0959 11.9389C89.666 10.7789 90.4117 9.92045 91.3331 9.36364C92.2611 8.80682 93.2588 8.52841 94.326 8.52841C95.1281 8.52841 95.8142 8.66761 96.3842 8.94602C96.9543 9.2178 97.425 9.56913 97.7962 10C98.1674 10.4309 98.4491 10.8783 98.6413 11.3423H98.7408V3.63636H103.603V24H98.7905V21.5241H98.6413C98.4358 21.9948 98.1442 22.4356 97.7663 22.8466C97.3885 23.2576 96.9145 23.589 96.3445 23.8409C95.781 24.0928 95.1148 24.2188 94.3459 24.2188ZM96.0362 20.4304C96.6262 20.4304 97.13 20.2647 97.5476 19.9332C97.9652 19.5952 98.2867 19.1212 98.5121 18.5114C98.7375 17.9015 98.8501 17.1856 98.8501 16.3636C98.8501 15.5284 98.7375 14.8092 98.5121 14.206C98.2933 13.6027 97.9718 13.1387 97.5476 12.8139C97.13 12.4891 96.6262 12.3267 96.0362 12.3267C95.433 12.3267 94.9226 12.4924 94.505 12.8239C94.0874 13.1553 93.7692 13.6226 93.5504 14.2259C93.3383 14.8291 93.2322 15.5417 93.2322 16.3636C93.2322 17.1856 93.3416 17.9015 93.5604 18.5114C93.7791 19.1212 94.094 19.5952 94.505 19.9332C94.9226 20.2647 95.433 20.4304 96.0362 20.4304ZM113.817 24.2884C112.22 24.2884 110.841 23.9735 109.681 23.3438C108.527 22.7074 107.639 21.8026 107.016 20.6293C106.4 19.4493 106.091 18.0473 106.091 16.4233C106.091 14.8456 106.403 13.4669 107.026 12.2869C107.649 11.1004 108.527 10.179 109.661 9.52273C110.794 8.85985 112.13 8.52841 113.668 8.52841C114.755 8.52841 115.749 8.69744 116.651 9.03551C117.552 9.37358 118.331 9.87405 118.988 10.5369C119.644 11.1998 120.154 12.0185 120.519 12.9929C120.883 13.9607 121.066 15.071 121.066 16.3239V17.5369H107.792V14.7131H116.542C116.535 14.196 116.412 13.7353 116.174 13.331C115.935 12.9266 115.607 12.6117 115.189 12.3864C114.778 12.1544 114.304 12.0384 113.767 12.0384C113.224 12.0384 112.737 12.161 112.306 12.4062C111.875 12.6449 111.533 12.973 111.282 13.3906C111.03 13.8016 110.897 14.2689 110.884 14.7926V17.6662C110.884 18.2893 111.007 18.8362 111.252 19.3068C111.497 19.7708 111.845 20.1321 112.296 20.3906C112.747 20.6491 113.283 20.7784 113.907 20.7784C114.337 20.7784 114.729 20.7187 115.08 20.5994C115.431 20.4801 115.733 20.3045 115.985 20.0724C116.237 19.8404 116.426 19.5554 116.551 19.2173L121.016 19.3466C120.83 20.3475 120.423 21.2192 119.793 21.9616C119.17 22.6974 118.351 23.2708 117.337 23.6818C116.323 24.0862 115.15 24.2884 113.817 24.2884Z" fill="#CC1D1D"/>
</svg>
